<?xml version="1.0" standalone="no"?>
<!DOCTYPE svg PUBLIC "-//W3C//DTD SVG 20010904//EN"
 "http://www.w3.org/TR/2001/REC-SVG-20010904/DTD/svg10.dtd">
<svg version="1.0" xmlns="http://www.w3.org/2000/svg"
 width="340.000000pt" height="60.000000pt" viewBox="0 0 340.000000 60.000000"
 preserveAspectRatio="xMidYMid meet">

<!-- Setzen Sie den Hintergrund auf schwarz -->
<rect width="100%" height="100%" fill="black"/>

<g transform="translate(0.000000,60.000000) scale(0.100000,-0.100000)"
fill="#FFFFFF" stroke="none">
<path d="M0 300 l0 -300 1700 0 1700 0 0 300 0 300 -1700 0 -1700 0 0 -300z
m1340 281 c0 -5 -6 -14 -14 -20 -16 -13 -26 -80 -14 -87 4 -3 8 7 8 22 0 15
10 42 21 61 l22 35 76 -7 c42 -4 135 -7 206 -7 86 0 139 -5 158 -13 15 -8 27
-9 27 -5 0 5 7 7 15 4 23 -9 16 -74 -7 -74 -6 0 -16 -7 -22 -15 -9 -12 -28
-14 -116 -7 -58 5 -114 5 -125 1 -14 -5 -6 -8 28 -8 52 -1 65 -15 16 -18 -29
-2 -68 -35 -69 -59 0 -16 72 -27 161 -25 75 3 98 -6 93 -36 -1 -7 -2 -24 -3
-38 l-1 -25 -125 0 c-115 0 -125 -1 -125 -19 0 -10 -3 -39 -6 -65 -6 -38 -4
-46 10 -46 9 0 16 -4 16 -10 0 -5 -8 -10 -17 -10 -15 0 -15 -1 1 -13 15 -11
17 -17 7 -35 -12 -23 -55 -30 -66 -12 -3 5 3 10 14 10 11 0 22 3 24 7 3 5 -40
9 -95 10 -56 1 -105 7 -113 13 -15 12 -19 176 -6 195 4 6 6 45 3 88 -3 65 -7
77 -21 75 -14 -3 -15 6 -13 57 2 33 8 66 14 73 12 14 38 16 38 3z m-1286 -23
c-19 -21 -19 -21 1 -13 22 10 68 14 250 21 66 3 164 7 218 10 l97 5 30 -30
c17 -16 30 -37 30 -46 0 -9 7 -15 16 -13 10 2 19 -3 22 -11 3 -10 0 -12 -12
-8 -10 4 -16 1 -16 -8 0 -8 7 -15 15 -15 21 0 20 -68 -1 -91 -19 -21 -20 -48
-3 -111 18 -68 1 -121 -44 -139 -17 -7 -36 -13 -42 -14 -5 0 -17 -5 -25 -10
-8 -5 -64 -10 -125 -12 -60 -1 -159 -7 -220 -12 -108 -9 -110 -8 -135 15 -21
21 -25 34 -27 92 -4 132 -7 160 -21 155 -10 -4 -11 10 -6 66 6 60 4 71 -10 77
-12 5 -16 19 -16 60 0 49 2 54 22 54 21 0 21 0 2 -22z m836 -10 c0 -5 -18 -8
-39 -8 -30 0 -44 -6 -55 -22 -19 -27 -26 -22 -19 15 5 27 7 28 59 25 30 -2 54
-6 54 -10z m1283 -25 c62 -98 189 -363 183 -379 -3 -8 -18 -14 -34 -14 -16 0
-43 -7 -61 -16 -38 -19 -54 -10 -73 42 l-12 34 -71 -1 c-106 -1 -120 -7 -122
-53 0 -20 -3 -39 -5 -42 -3 -2 -26 -7 -51 -10 -32 -5 -47 -3 -47 5 0 6 18 11
45 11 25 0 45 3 45 8 0 4 -20 6 -45 4 -48 -4 -51 0 -35 42 8 21 6 25 -13 28
-16 2 -23 11 -25 32 -4 34 10 46 56 46 20 0 32 5 32 14 0 7 7 19 15 26 8 7 15
22 15 34 0 12 6 30 13 41 8 11 17 36 20 55 5 30 4 32 -5 13 -6 -13 -14 -23
-18 -23 -12 0 -21 45 -10 48 6 2 6 11 -1 24 -16 30 -4 32 19 4 25 -33 28 -32
27 1 0 22 6 29 30 36 17 5 37 13 45 18 34 18 60 9 83 -28z m857 25 c0 -5 -18
-8 -40 -8 -44 0 -60 -18 -60 -69 0 -17 -4 -31 -10 -31 -5 0 -10 5 -10 11 0 6
-9 8 -22 3 l-23 -6 24 26 c14 14 21 26 16 26 -4 0 0 9 10 20 10 11 15 20 11
20 -4 0 -4 5 -1 10 7 12 105 9 105 -2z m-395 -12 c13 -9 16 -19 10 -32 -6 -15
-8 -16 -12 -4 -3 8 -12 23 -21 33 -18 20 -4 23 23 3z m-1580 -21 c175 -4 165
-2 165 -31 0 -13 -4 -24 -10 -24 -5 0 -10 -7 -10 -15 0 -12 -18 -15 -100 -15
-55 0 -100 -4 -100 -8 0 -4 17 -7 38 -5 20 2 30 0 22 -3 -8 -3 -22 -8 -30 -11
-8 -4 -21 -5 -27 -4 -7 1 -13 -7 -13 -17 0 -22 39 -32 126 -32 58 0 75 -13 67
-52 l-5 -28 -93 0 c-92 0 -93 0 -99 -26 -4 -15 -3 -30 1 -34 8 -8 116 -15 163
-11 23 2 24 3 5 11 -16 7 -11 9 22 9 33 1 45 -4 53 -19 7 -14 7 -20 0 -20 -5
0 -10 5 -10 10 0 6 -7 10 -16 10 -12 0 -14 -4 -7 -12 15 -20 13 -55 -3 -69
-11 -9 -42 -9 -137 -1 -67 7 -150 12 -184 11 -33 0 -64 5 -68 10 -3 6 -6 44
-5 83 0 40 0 86 0 101 0 15 5 37 11 48 7 15 7 24 -1 34 -12 15 -3 92 13 114 8
9 24 11 57 6 25 -4 104 -8 175 -10z m1470 5 c4 -6 23 -7 46 -4 43 7 42 11 39
-73 -1 -29 3 -53 8 -53 4 0 19 11 32 25 13 14 28 25 33 25 5 0 28 16 50 36 37
34 43 36 90 31 27 -4 52 -9 56 -13 7 -7 -68 -73 -84 -74 -5 0 -27 -18 -48 -38
l-37 -38 50 -73 c27 -40 50 -78 50 -85 0 -7 11 -22 25 -34 34 -29 24 -42 -30
-42 -42 0 -46 3 -85 55 -22 30 -40 59 -40 65 0 5 -4 10 -9 10 -5 0 -13 9 -16
20 -13 41 -53 19 -62 -33 -4 -30 -3 -37 11 -37 22 0 21 -20 -1 -21 -11 0 -13
-3 -5 -6 6 -2 12 -18 12 -34 0 -25 -4 -29 -27 -29 -25 1 -26 2 -10 14 9 7 17
15 17 17 0 2 -36 3 -81 1 -107 -5 -109 -2 -102 104 5 76 4 84 -10 78 -11 -4
-17 -1 -17 9 0 8 9 17 19 20 22 5 38 66 25 94 -5 14 -9 7 -14 -24 -10 -68 -23
-64 -16 5 3 35 12 70 21 78 8 9 15 20 15 25 0 12 87 12 95 -1z m675 -5 c74 -2
141 -5 148 -6 14 -3 17 -49 2 -49 -5 0 -10 -7 -10 -15 0 -12 -18 -15 -100 -15
-55 0 -100 -4 -100 -8 0 -4 17 -7 38 -5 20 2 30 0 22 -3 -8 -3 -22 -8 -30 -11
-8 -4 -21 -5 -27 -4 -15 2 -16 -8 -4 -28 6 -9 36 -16 87 -19 89 -5 106 -14
101 -51 -4 -26 -4 -26 -100 -29 l-97 -3 0 -33 0 -33 71 -5 c39 -3 81 -3 92 0
20 5 20 6 1 13 -13 5 -5 8 27 8 39 1 48 -2 52 -19 3 -11 1 -20 -4 -20 -5 0 -9
5 -9 10 0 6 -8 10 -17 9 -11 0 -13 -3 -5 -6 6 -2 12 -20 12 -39 0 -45 -20 -49
-163 -35 -61 6 -141 12 -177 13 l-65 3 -3 35 c-1 19 -3 42 -4 50 0 8 3 44 7
80 4 36 7 97 6 137 -3 84 9 97 74 87 22 -3 101 -8 175 -9z m-2424 -72 c-11
-11 -19 6 -11 24 8 17 8 17 12 0 3 -10 2 -21 -1 -24z m2046 -39 c-13 -9 -26
-13 -30 -9 -8 8 17 25 38 25 9 0 6 -6 -8 -16z m-842 2 c0 -3 -4 -8 -10 -11 -5
-3 -10 -1 -10 4 0 6 5 11 10 11 6 0 10 -2 10 -4z m-160 -160 c0 -18 -17 -23
-60 -16 -23 3 -31 8 -22 13 6 5 15 6 20 4 4 -3 16 -1 27 4 29 11 35 11 35 -5z
m-593 -108 c-3 -8 -6 -5 -6 6 -1 11 2 17 5 13 3 -3 4 -12 1 -19z m2148 12 c3
-5 1 -10 -4 -10 -6 0 -11 5 -11 10 0 6 2 10 4 10 3 0 8 -4 11 -10z m-489 -48
c-9 -14 -42 -21 -57 -11 -11 7 -11 9 2 9 9 0 22 7 29 15 14 17 37 5 26 -13z
m-688 2 c6 -11 17 -15 31 -11 18 4 20 3 10 -9 -6 -8 -18 -14 -27 -14 -14 0
-41 27 -42 43 0 13 19 7 28 -9z m112 -4 c-20 -13 -53 -13 -45 0 3 6 18 10 33
10 21 0 24 -2 12 -10z m-1640 -14 c-15 -19 -63 -34 -117 -38 -60 -3 -64 9 -6
17 26 3 62 12 78 20 42 19 61 19 45 1z m-565 -36 c0 -7 -6 -15 -12 -18 -8 -2
-13 5 -13 18 0 13 5 20 13 18 6 -3 12 -11 12 -18z"/>
<path d="M1372 518 c-15 -15 -16 -38 -2 -38 12 0 23 25 18 40 -2 7 -7 7 -16
-2z"/>
<path d="M1820 514 c0 -8 5 -12 10 -9 6 3 10 10 10 16 0 5 -4 9 -10 9 -5 0
-10 -7 -10 -16z"/>
<path d="M1735 320 c-3 -5 1 -10 9 -10 9 0 16 5 16 10 0 6 -4 10 -9 10 -6 0
-13 -4 -16 -10z"/>
<path d="M1499 188 c-7 -25 -7 -48 1 -48 6 0 10 11 10 25 0 20 -7 35 -11 23z"/>
<path d="M607 525 c19 -25 33 -32 33 -16 0 13 -29 41 -41 41 -6 0 -2 -11 8
-25z"/>
<path d="M313 462 c-6 -4 -13 -25 -15 -47 l-3 -40 45 -3 c25 -2 64 -1 88 3 36
5 42 9 42 31 0 52 -15 64 -83 64 -34 0 -67 -4 -74 -8z m47 -12 c0 -5 -4 -10
-10 -10 -5 0 -10 5 -10 10 0 6 5 10 10 10 6 0 10 -4 10 -10z m85 0 c4 -6 -8
-10 -29 -10 -20 0 -36 5 -36 10 0 6 13 10 29 10 17 0 33 -4 36 -10z"/>
<path d="M490 365 c-10 -12 -10 -15 4 -15 9 0 16 7 16 15 0 8 -2 15 -4 15 -2
0 -9 -7 -16 -15z"/>
<path d="M358 263 c-37 -3 -48 -8 -47 -21 0 -10 3 -12 6 -4 2 6 16 12 29 12
l24 0 -20 -20 c-11 -11 -24 -20 -29 -20 -8 0 -21 -23 -21 -36 0 -8 130 -4 154
6 46 17 27 91 -22 88 -15 -1 -48 -3 -74 -5z"/>
<path d="M646 164 c-4 -10 -1 -14 6 -12 15 5 23 28 10 28 -5 0 -13 -7 -16 -16z"/>
<path d="M130 100 c0 -5 5 -10 10 -10 6 0 10 5 10 10 0 6 -4 10 -10 10 -5 0
-10 -4 -10 -10z"/>
<path d="M2058 358 c-5 -40 -1 -64 12 -70 9 -4 1 -7 -20 -8 l-35 -2 33 -8 c52
-12 73 -3 65 29 -3 14 -12 32 -20 39 -7 7 -13 18 -13 23 0 14 -20 11 -22 -3z"/>
<path d="M2230 160 c0 -5 7 -10 16 -10 8 0 12 5 9 10 -3 6 -10 10 -16 10 -5 0
-9 -4 -9 -10z"/>
<path d="M830 170 c0 -5 10 -10 23 -10 18 0 19 2 7 10 -19 13 -30 13 -30 0z"/>
<path d="M2450 494 c0 -8 5 -12 10 -9 6 3 10 10 10 16 0 5 -4 9 -10 9 -5 0
-10 -7 -10 -16z"/>
<path d="M2435 170 c-3 -5 1 -10 10 -10 9 0 13 5 10 10 -3 6 -8 10 -10 10 -2
0 -7 -4 -10 -10z"/>
<path d="M2980 169 c0 -5 9 -9 20 -9 11 0 20 2 20 4 0 2 -9 6 -20 9 -11 3 -20
1 -20 -4z"/>
</g>
</svg>
