<svg xmlns="http://www.w3.org/2000/svg" xmlns:xlink="http://www.w3.org/1999/xlink" width="135" height="20" viewBox="59 0 135 22">
 
  <g id="Logo_-_TIME_for_kids_Cockpit" data-name="Logo - TIME for kids Cockpit" transform="translate(-318 -9)">
    <g id="Time_for_kids" data-name="Time for kids" transform="translate(298 -9)" clip-path="url(#clip-path)">
      <g id="LOGO_Time-for-kids_-_white" data-name="LOGO_Time-for-kids - white" transform="translate(80 22.937)">
        <path id="Pfad_3677" data-name="Pfad 3677" d="M7.868,4.7V15.716H3.959V4.7H.012V1.2H11.82V4.7Z" transform="translate(-0.012 -0.384)" fill="#f8f8f8"/>
        <path id="Pfad_3678" data-name="Pfad 3678" d="M19.1,15.716V1.2H23.1v14.52Z" transform="translate(-4.921 -0.384)" fill="#f8f8f8"/>
        <path id="Pfad_3679" data-name="Pfad 3679" d="M38.933,15.716V12.254c0-1.432.022-2.739.082-3.859-.425,1.08-1.148,2.757-1.634,3.8l-1.855,4.024-1.855-4.024c-.485-1.039-1.209-2.717-1.634-3.8.061,1.12.082,2.427.082,3.859v3.462H28.455V1.2h3.588l1.733,3.876a39.454,39.454,0,0,1,1.772,4.376,42.954,42.954,0,0,1,1.772-4.376L39.054,1.2H42.6v14.52Z" transform="translate(-7.326 -0.384)" fill="#f8f8f8"/>
        <path id="Pfad_3680" data-name="Pfad 3680" d="M51.345,15.716V1.2h10.8V4.577H55.215V6.5h4.169V9.845H55.215v2.489h7.072v3.381Z" transform="translate(-13.212 -0.384)" fill="#f8f8f8"/>
        <path id="Pfad_3681" data-name="Pfad 3681" d="M82.793,3.128c-.546,0-.724.187-.724.682v.852H83.7V7.588H82.13v7.962H78.564V7.588H77.437V4.662h1.127V3.6c0-2.239.927-3.109,2.981-3.109a5.219,5.219,0,0,1,2.3.455v2.4A2.407,2.407,0,0,0,82.793,3.128Z" transform="translate(-19.921 -0.219)" fill="#f8f8f8"/>
        <path id="Pfad_3682" data-name="Pfad 3682" d="M92.186,16.99c-2.921,0-5.018-1.927-5.018-5.683,0-3.8,2.1-5.661,5.018-5.661s5.035,1.865,5.035,5.661C97.225,15.063,95.106,16.99,92.186,16.99Zm0-8.315c-.949,0-1.43.79-1.43,2.632,0,1.807.485,2.654,1.43,2.654s1.43-.852,1.43-2.654C93.616,9.461,93.135,8.676,92.186,8.676Z" transform="translate(-22.423 -1.431)" fill="#f8f8f8"/>
        <path id="Pfad_3683" data-name="Pfad 3683" d="M109.921,9.983a2.271,2.271,0,0,0-1.69-.914c-.888,0-1.43.437-1.43,1.762v5.933h-3.627V5.874H106.8v.79a3.091,3.091,0,0,1,2.258-1.017,3.035,3.035,0,0,1,1.712.455Z" transform="translate(-26.539 -1.431)" fill="#f8f8f8"/>
        <path id="Pfad_3684" data-name="Pfad 3684" d="M130.435,15.53l-1.59-4.541-.945,1.245v3.3h-3.627V1.9L127.9.408V4.847c0,.727-.039,2.4-.061,3.091a26.059,26.059,0,0,1,1.59-2.364l.706-.932h4.13L131.527,7.92l2.821,7.61Z" transform="translate(-31.965 -0.199)" fill="#f8f8f8"/>
        <path id="Pfad_3685" data-name="Pfad 3685" d="M141.691,3.788a1.873,1.873,0,0,1-2.076-1.847,2.118,2.118,0,0,1,4.19,0A1.871,1.871,0,0,1,141.691,3.788Zm-1.812,11.678V4.577h3.627V15.466Z" transform="translate(-35.91 -0.134)" fill="#f8f8f8"/>
        <path id="Pfad_3686" data-name="Pfad 3686" d="M153.513,15.53v-.767a3.632,3.632,0,0,1-2.5.995c-1.976,0-3.506-1.6-3.506-5.643,0-3.9,1.352-5.705,3.649-5.705a3.671,3.671,0,0,1,2.357.955V1.9L157.162.408V15.53Zm0-7.53a1.831,1.831,0,0,0-1.291-.517c-.745,0-1.148.477-1.148,2.511,0,2.177.4,2.694,1.17,2.694a1.857,1.857,0,0,0,1.27-.517Z" transform="translate(-37.939 -0.199)" fill="#f8f8f8"/>
        <path id="Pfad_3687" data-name="Pfad 3687" d="M167.6,16.99a11.961,11.961,0,0,1-4.411-.892l.845-2.819a10,10,0,0,0,3.649.955c.706,0,.966-.165.966-.5,0-.352-.16-.5-.845-.682-3.263-.892-4.394-1.575-4.394-3.836,0-2.239,1.43-3.569,4.312-3.569a10.569,10.569,0,0,1,4.069.79l-.806,2.882A8.456,8.456,0,0,0,167.62,8.4c-.706,0-.888.147-.888.477s.121.455,1.049.745c2.981.807,4.19,1.535,4.19,3.694C171.971,15.831,170.3,16.99,167.6,16.99Z" transform="translate(-41.971 -1.431)" fill="#f8f8f8"/>
      </g>
    </g>
    
  
  </g>
</svg>
